<?xml version="1.0" standalone="no"?>
<!DOCTYPE svg PUBLIC "-//W3C//DTD SVG 20010904//EN"
 "http://www.w3.org/TR/2001/REC-SVG-20010904/DTD/svg10.dtd">
<svg version="1.0" xmlns="http://www.w3.org/2000/svg"
 width="16.000000pt" height="16.000000pt" viewBox="0 0 16.000000 16.000000"
 preserveAspectRatio="xMidYMid meet">
<metadata>
Created by potrace 1.11, written by Peter Selinger 2001-2013
</metadata>
<g transform="translate(0.000000,16.000000) scale(0.001384,-0.001384)"
fill="#000000" stroke="none">
<path d="M4 5782 l1 -1297 1294 -3 c768 -1 1297 2 1300 7 3 5 6 589 6 1298
l-1 1288 -1301 2 -1301 3 2 -1298z"/>
<path d="M9608 6905 c-2 -2 -19 -5 -38 -8 -47 -6 -146 -44 -192 -74 -21 -12
-40 -23 -44 -23 -3 0 -43 -22 -88 -49 -237 -142 -566 -326 -604 -337 -65 -20
-141 -19 -208 2 -72 22 -128 74 -236 217 -128 169 -217 222 -388 231 -80 4
-255 -41 -323 -83 -18 -10 -48 -28 -67 -38 -19 -11 -208 -119 -420 -240 -212
-122 -407 -233 -435 -249 -27 -15 -62 -35 -77 -44 l-26 -16 65 -79 c118 -146
155 -186 195 -211 85 -54 180 -71 272 -49 34 8 168 79 397 212 313 181 452
251 535 268 16 3 43 9 59 13 17 3 71 6 120 5 183 -1 285 -66 471 -298 122
-152 137 -164 224 -170 70 -5 178 44 410 185 86 52 433 250 439 250 4 0 26 9
49 20 61 30 207 62 277 61 175 -2 296 -75 450 -271 121 -155 180 -195 285
-195 52 1 77 7 125 31 61 31 670 383 706 407 19 14 18 16 -26 73 -108 140
-162 205 -201 242 -36 34 -103 62 -152 62 -79 0 -146 -29 -365 -159 -48 -29
-131 -73 -183 -98 -80 -39 -106 -47 -162 -49 -81 -2 -148 14 -201 49 -22 14
-84 81 -138 148 -54 68 -114 138 -133 157 -71 68 -186 110 -305 110 -35 0 -65
-2 -67 -3z"/>
<path d="M7821 5970 c-4 -3 -7 -123 -7 -268 1 -144 0 -262 -2 -262 -2 0 -15
14 -29 30 -80 96 -275 133 -417 80 -199 -75 -319 -274 -318 -530 0 -216 80
-383 227 -477 73 -46 141 -63 238 -59 128 6 231 54 291 137 15 22 30 38 33 35
4 -4 10 -65 12 -132 1 -20 6 -21 119 -20 l117 1 -4 130 c-1 72 -4 402 -5 734
l-1 604 -123 1 c-68 1 -127 -1 -131 -4z m-167 -612 c58 -17 129 -92 147 -155
21 -75 17 -287 -7 -352 -72 -202 -345 -211 -440 -13 -39 81 -49 218 -23 317
43 162 176 246 323 203z"/>
<path d="M3708 5561 c-76 -19 -132 -55 -188 -120 -37 -43 -40 -44 -41 -21 -5
95 -7 121 -12 126 -5 6 -37 7 -158 5 l-67 -1 3 -42 c2 -24 4 -259 4 -523 l1
-481 128 1 127 0 5 345 c6 384 6 386 75 453 64 62 161 72 228 25 29 -21 63
-84 74 -136 3 -15 6 -175 7 -357 l1 -330 128 -1 c122 0 127 0 128 20 0 12 1
170 2 351 2 315 3 332 24 370 26 50 58 80 105 100 52 21 96 19 148 -7 37 -19
50 -34 75 -83 l29 -60 2 -335 c1 -184 3 -340 3 -347 1 -8 38 -11 129 -10 l127
2 0 340 c0 401 -10 483 -74 585 -88 140 -298 187 -455 102 -53 -28 -146 -112
-146 -131 0 -23 -26 -10 -39 20 -7 16 -30 46 -50 66 -78 78 -199 105 -323 74z"/>
<path d="M5298 5575 c-2 -2 -26 -5 -54 -9 -74 -8 -224 -57 -252 -81 -2 -2 8
-42 23 -88 l26 -86 47 24 c98 48 269 66 342 36 58 -24 96 -74 104 -138 l5 -43
-37 -1 c-288 -5 -479 -90 -553 -245 -32 -68 -42 -155 -25 -232 7 -37 62 -127
92 -154 49 -43 128 -72 204 -74 127 -5 209 22 292 95 l47 42 6 -48 c4 -27 8
-52 9 -58 2 -6 51 -10 118 -11 l115 -1 -3 281 c-6 412 -10 482 -33 545 -59
159 -187 240 -386 245 -47 2 -86 2 -87 1z m238 -568 c13 -13 6 -173 -9 -209
-30 -70 -108 -123 -189 -127 -113 -6 -181 80 -153 192 20 78 99 131 214 144
31 3 57 6 58 7 7 6 73 0 79 -7z"/>
<path d="M6460 5561 c-84 -21 -150 -60 -197 -116 -20 -25 -40 -45 -43 -45 -3
0 -6 32 -8 72 -1 40 -4 73 -6 75 -9 9 -226 7 -227 -2 0 -5 0 -53 1 -105 1 -52
3 -284 4 -515 l1 -420 133 -1 132 -1 0 327 c0 372 4 401 67 462 90 88 212 91
286 8 57 -62 61 -90 63 -440 1 -173 3 -324 3 -336 1 -20 6 -21 125 -20 68 1
127 4 131 8 4 4 7 161 7 350 0 366 -7 429 -53 520 -77 152 -244 223 -419 179z"/>
<path d="M8330 5550 l-65 -5 0 -520 0 -520 128 -1 c99 -1 130 2 134 12 3 8 6
243 6 524 l2 510 -35 1 c-19 0 -51 1 -70 2 -19 1 -64 0 -100 -3z"/>
<path d="M8765 5552 l-50 -3 2 -482 c1 -265 3 -500 3 -522 l0 -40 130 -1 c72
-1 130 2 131 5 1 3 2 139 3 301 2 342 9 379 79 449 47 48 106 69 187 66 l56
-1 1 114 1 114 -77 -4 c-121 -5 -204 -57 -258 -161 l-22 -42 -2 45 c-1 25 -3
59 -4 75 -2 17 -3 44 -4 60 l-1 30 -62 0 c-35 0 -85 -1 -113 -3z"/>
<path d="M9463 5552 l-33 -3 0 -523 0 -524 133 2 132 1 0 522 0 522 -100 3
c-55 2 -115 2 -132 0z"/>
</g>
</svg>
